<svg width="24" height="24" viewBox="0 0 24 24" fill="none" xmlns="http://www.w3.org/2000/svg">
<g filter="url(#filter0_d_27_26)">
<path d="M4 5C4 4.44772 4.44772 4 5 4V4C5.55228 4 6 4.44772 6 5V18H4V5Z" fill="#80FF80"/>
<path d="M6 18H19C19.5523 18 20 18.4477 20 19V19C20 19.5523 19.5523 20 19 20H6V18Z" fill="#FF8080"/>
<path d="M4 18H6V20H5C4.44772 20 4 19.5523 4 19V18Z" fill="#8080FF"/>
</g>
<g filter="url(#filter1_d_27_26)">
<path d="M7.14645 16.1464C6.95118 16.3417 6.95118 16.6583 7.14645 16.8536C7.34171 17.0488 7.65829 17.0488 7.85355 16.8536L7.14645 16.1464ZM20 4.5C20 4.22386 19.7761 4 19.5 4L15 4C14.7239 4 14.5 4.22386 14.5 4.5C14.5 4.77614 14.7239 5 15 5L19 5V9C19 9.27614 19.2239 9.5 19.5 9.5C19.7761 9.5 20 9.27614 20 9V4.5ZM7.85355 16.8536L19.8536 4.85355L19.1464 4.14645L7.14645 16.1464L7.85355 16.8536Z" fill="#FFFF80"/>
</g>
<defs>
<filter id="filter0_d_27_26" x="2" y="3" width="20" height="20" filterUnits="userSpaceOnUse" color-interpolation-filters="sRGB">
<feFlood flood-opacity="0" result="BackgroundImageFix"/>
<feColorMatrix in="SourceAlpha" type="matrix" values="0 0 0 0 0 0 0 0 0 0 0 0 0 0 0 0 0 0 127 0" result="hardAlpha"/>
<feOffset dy="1"/>
<feGaussianBlur stdDeviation="1"/>
<feComposite in2="hardAlpha" operator="out"/>
<feColorMatrix type="matrix" values="0 0 0 0 0 0 0 0 0 0 0 0 0 0 0 0 0 0 0.25 0"/>
<feBlend mode="normal" in2="BackgroundImageFix" result="effect1_dropShadow_27_26"/>
<feBlend mode="normal" in="SourceGraphic" in2="effect1_dropShadow_27_26" result="shape"/>
</filter>
<filter id="filter1_d_27_26" x="5" y="3" width="17" height="17" filterUnits="userSpaceOnUse" color-interpolation-filters="sRGB">
<feFlood flood-opacity="0" result="BackgroundImageFix"/>
<feColorMatrix in="SourceAlpha" type="matrix" values="0 0 0 0 0 0 0 0 0 0 0 0 0 0 0 0 0 0 127 0" result="hardAlpha"/>
<feOffset dy="1"/>
<feGaussianBlur stdDeviation="1"/>
<feComposite in2="hardAlpha" operator="out"/>
<feColorMatrix type="matrix" values="0 0 0 0 0 0 0 0 0 0 0 0 0 0 0 0 0 0 0.25 0"/>
<feBlend mode="normal" in2="BackgroundImageFix" result="effect1_dropShadow_27_26"/>
<feBlend mode="normal" in="SourceGraphic" in2="effect1_dropShadow_27_26" result="shape"/>
</filter>
</defs>
</svg>
